<svg xmlns="http://www.w3.org/2000/svg" viewBox="0 0 64 64" fill="#fff">
	<path class="st1" d="M48.889,25.208c-1.764-4.393-4.935-7.247-9.52-8.556l6.535-3.57c3.111,1.071,5.238,2.918,6.233,5.902 L48.889,25.208z" />
	<path class="st1" d="M40.136,40.133c-2.371-8.29-7.314-13.791-15.834-15.383l8.445-7.389c7.689,0.452,15.216,6.336,15.34,14.174 L40.136,40.133z" />
	<rect x="15.77" y="7.448" transform="matrix(0.7071 0.7071 -0.7071 0.7071 13.813 -9.4171)" class="st1" width="5.008" height="9.035" />
	<rect x="20.841" y="12.519" transform="matrix(0.7071 0.7071 -0.7071 0.7071 18.8844 -11.5178)" class="st1" width="5.008" height="9.035" />
	<rect x="45.405" y="37.083" transform="matrix(0.7071 0.7071 -0.7071 0.7071 43.4481 -21.6924)" class="st1" width="5.008" height="9.035" />
	<rect x="50.476" y="42.154" transform="matrix(0.7071 0.7071 -0.7071 0.7071 48.5195 -23.7931)" class="st1" width="5.008" height="9.035" />
	<path class="st1" d="M34.685,55.224c0.62-0.692,1.01-1.547,1.19-2.521l0.002,0.002c0.002-0.011,0.003-0.022,0.005-0.033 c0.007-0.039,0.012-0.079,0.018-0.119c0.623-3.701,0.678-7.336,0.22-10.724c-1.338-8.153-6.335-12.717-14.94-13.618 c-4.18-0.433-8.902,0.079-11.845,1.218l0,0c-0.776,0.294-1.443,0.732-1.974,1.325c-2.788,3.113-0.961,9.479,4.014,15.409 c0.112,0.134,0.313,0.174,0.463,0.084c0.563-0.339,0.975-0.755,1.239-1.248c0.067-0.125,0.041-0.282-0.049-0.391 C9.427,40.22,7.96,35.843,9.751,33.843c2.288-2.555,9.011-0.265,15.017,5.114c6.006,5.379,9.021,11.81,6.733,14.364 c-1.984,2.215-7.305,0.786-12.6-3.141c-0.119-0.089-0.286-0.098-0.411-0.016c-0.53,0.348-0.94,0.743-1.225,1.185 c-0.099,0.153-0.048,0.363,0.098,0.472C24.284,57.014,31.671,58.59,34.685,55.224z" />
	<path class="st1" d="M21.638,39.681l2.479,2.479L8.667,55.365c-0.083,0.071-0.198,0.106-0.304,0.083 c-0.465-0.1-0.74-0.36-0.805-0.794c-0.016-0.105,0.028-0.214,0.101-0.291L21.638,39.681z" />
</svg>
