<svg version="1.1" xmlns="http://www.w3.org/2000/svg" viewBox="0 0 64 64" fill="#fff">
	<path d="M47.188,13.577L19.561,6.351v0.008c-2.072-0.555-4.133-0.538-5.698,0.554 c-6.163,4.298-5.813,12.802-1.1,16.892l1.604,0.054c-3.412-6.151-3.198-12.806,0.611-15.074c3.928-2.339,10.155,0.877,13.909,7.182 c0.909,1.526,1.577,3.088,2.019,4.615c0.661,2.281,2.637,3.921,5.011,4l14.184,0.477c1.607,0.054,2.997-1.69,2.997-3.733v-1.881 C53.098,17.059,50.796,14.554,47.188,13.577z" />
	<path d="M21.995,21.891c0-2.648,1.129-4.944,2.801-6.223c-1.297-1.635-2.727-2.844-4.066-3.579 c-2.225,1.904-3.694,5.153-3.694,8.848c0,5.869,3.7,10.628,8.264,10.628c1.959,0,3.736-0.9,5.141-2.375H27.78 C24.585,29.189,21.995,25.921,21.995,21.891z" />
	<path d="M33.153,25.715c-1.391,3.821-4.35,6.494-7.849,6.496c-0.001,0-0.002,0-0.004,0 c-4.842,0-8.768-5.048-8.768-11.275c0-3.758,1.445-7.065,3.643-9.113c-0.842-0.39-1.636-0.612-2.303-0.612 c-0.079,0-0.143,0.02-0.218,0.025c-1.914,2.495-3.098,5.919-3.098,9.7c0,7.63,4.81,13.816,10.744,13.816c0.001,0,0.002,0,0.004,0v0 h15.913c4.249,0,7.693-3.444,7.693-7.693v-1.344H33.153z" />
	<path d="M37.214,39.065c0-0.372-0.164-0.69-0.405-0.907c0.586-1.206,1.309-2.134,1.997-2.875h-7.013 c-0.838,1.043-1.75,2.516-2.469,4.797h-0.001c-0.001,0.002-0.001,0.005-0.002,0.007c-0.018,0.058-0.04,0.159-0.04,0.159h5.175 c-0.909,1.255-1.235,2.698-1.235,5.268h-2.977c0-1.818,0.16-3.344,0.64-4.744H29.16c-0.376,1.765-0.551,4.545-0.572,6.203 l0.002,0.762l0.602-0.004c3.475-0.017,13.581-0.089,19.717,3.218v-8.318c-3.901-1.389-8.073-1.986-11.757-2.27 C37.183,39.996,37.214,39.524,37.214,39.065z" />
	<path d="M39.507,37.745v2.324c3.648,0.411,6.82,1.079,9.581,2.062l0.353,0.125v9.584H39.86L46.735,58l7.426-6.477 V37.745H39.507z" />
	<path d="M48.844,30.096c0.106,0.029,0.2,0.056,0.311,0.085c1.328,0.349,3.552,0.934,3.487,1.856 c-0.048,0.702-0.108,0.837-1.704,0.882c-0.897,0.027-1.914,0.056-2.771,0.623c-1.543,1.017-1.948,2.372-2.062,3.672h2.151 c0.098-0.815,0.345-1.413,1.081-1.899c0.353-0.232,1.017-0.251,1.663-0.27c1.248-0.037,3.572-0.104,3.763-2.86 c0.187-2.676-2.974-3.508-5.067-4.059c-0.126-0.033-0.235-0.063-0.354-0.095C49.256,28.749,49.103,29.445,48.844,30.096z" />
</svg>
