<svg xmlns="http://www.w3.org/2000/svg" viewBox="0 0 64 64">
	<style>
		circle { filter: drop-shadow(2px 2px 4px #000000); }
		.g0 { fill: #511620; }
		.p1 { fill: #ffc800; }
		.p2 {
			fill: #eaeaea;
			stroke: #56040e;
			stroke-width: 0.5;
			stroke-miterlimit: 10;
		}
	</style>
	<circle class="g0" cx="31.9" cy="32" r="28.8" />
	<path class="p1" d="M11.3,42.6l-5.4,1.8c4.1,8.7,12.5,15.1,22.5,16.3V55C20.9,53.8,14.6,49.1,11.3,42.6z" />
	<path class="p1" d="M8.7,31.9c0-6.4,2.6-12.3,6.8-16.5L12.2,11C6.6,16.2,3.1,23.7,3.1,32c0,1.9,0.2,3.7,0.5,5.5L9,35.8 C8.8,34.5,8.7,33.2,8.7,31.9z" />
	<path class="p1" d="M45.9,6.7C41.8,4.4,37,3.1,32,3.1c-5.1,0-9.8,1.3-13.9,3.6l3.2,4.5c3.2-1.7,6.8-2.6,10.7-2.6 c3.8,0,7.5,0.9,10.7,2.6L45.9,6.7z" />
	<path class="p1" d="M51.8,11l-3.2,4.5c4.2,4.2,6.8,10.1,6.8,16.5c0,1.3-0.1,2.6-0.3,3.8l5.4,1.8c0.3-1.8,0.5-3.6,0.5-5.4 C60.9,23.7,57.4,16.2,51.8,11z" />
	<path class="p1" d="M35.6,55v5.7c10-1.2,18.4-7.6,22.5-16.4l-5.4-1.8C49.4,49.1,43.1,53.8,35.6,55z" />
	<path class="p2" d="M27.9,51.8c0,0-0.6-1.2-0.8-1.1c-0.3,0.1-0.5,1.1-0.4,1.6c0.1,0.5,0.1,0.8,0.3,0.9c0.3,0.1,0.8-0.3,0.8-0.3 s0-0.4,0-0.6C27.9,52.1,27.9,51.8,27.9,51.8z" />
	<path class="p2" d="M25.9,50.8c-0.2,0.1-0.2,0.8-0.1,1.2c0.1,0.3,0.1,0.7,0.3,0.8c0.2,0.1,0.4,0,0.4,0s-0.1-0.4-0.1-0.6 c0-0.3,0.1-0.7,0.1-0.7C26.5,51.6,26,50.7,25.9,50.8z" />
	<path class="p2" d="M38.6,50.8c-0.1,0-0.2,0.7-0.3,1c0,0-0.2,0.7-0.1,0.8c0,0,0.3,0,0.4,0c0.2-0.1,0.2-0.2,0.2-0.5 C38.8,51.7,38.7,50.8,38.6,50.8z" />
	<path class="p2" d="M25.3,50.8c-0.1,0-0.1,0.9-0.1,1.3c0,0.3,0,0.4,0.2,0.5c0.2,0.1,0.4,0.1,0.4,0l-0.1-0.8 C25.5,51.5,25.3,50.8,25.3,50.8z" />
	<path class="p2" d="M31.8,52.4c-0.1-0.9-0.5-1.4-0.9-1.4c-0.5,0-0.8,0.3-1,0.8c-0.2,0.6-0.2,1.6,0,1.9c0.2,0.3,1.5,0.2,1.8,0.1 C32,53.7,31.9,53.3,31.8,52.4z" />
	<path class="p2" d="M24.8,52.2c0.1,0,0.2-0.6,0.2-0.8c0-0.3-0.2-0.6-0.2-0.6c-0.1,0-0.3,0.6-0.3,0.8C24.6,52,24.7,52.2,24.8,52.2z" />
	<path class="p2" d="M29.7,52.1c0,0-0.6-1-0.9-0.9c-0.4,0.1-0.8,1.4-0.7,1.7c0.1,0.3,0.3,0.6,0.6,0.7c0.3,0.1,0.9,0.1,0.9,0.1 s-0.1-0.4,0-0.8C29.5,52.5,29.7,52.1,29.7,52.1z" />
	<path class="p2" d="M38,50.9c-0.2-0.1-0.7,0.8-0.7,0.8s0.1,0.4,0.1,0.7c0,0.3-0.1,0.6-0.1,0.6s0.2,0,0.4,0 c0.2-0.1,0.2-0.4,0.3-0.8C38.1,51.7,38.1,51,38,50.9z" />
	<path class="p2" d="M33.1,51.1c-0.5,0-0.8,0.4-0.9,1.4c-0.1,0.9-0.2,1.3,0.1,1.4c0.3,0.1,1.6,0.2,1.8-0.1s0.2-1.3,0-1.9 C33.8,51.4,33.5,51.1,33.1,51.1z" />
	<path class="p2" d="M35.2,51.2c-0.4-0.1-0.9,0.9-0.9,0.9s0.2,0.4,0.2,0.7c0,0.4,0,0.8,0,0.8s0.7,0,0.9-0.1 c0.3-0.1,0.5-0.4,0.6-0.7C36,52.6,35.6,51.3,35.2,51.2z" />
	<path class="p2" d="M47.7,36.5c0,0.2,0,0.3,0,0.5c0,0.1,0,0.2,0,0.2v0.1v0.1l0,0l0,0l0,0l0,0c0,0,0.1,0,0.1,0.1l0,0 c0.3-0.1,0.8-0.5,0.9-0.9c0.2-0.6,0.2-2.9,0.3-3.6c0.2-0.8,1-2.6,1.2-5.9c0.2-3.2-0.8-8.1-3.2-10.3c-2.3-2.3-7.5-6.9-15.1-6.9 c-7.3,0.1-12.5,4.9-14.8,7.1s-3.3,7-3.2,10.3c0.2,3.2,1,5.2,1.2,5.9c0.2,0.8,0.2,3,0.3,3.6c0.1,0.5,0.8,0.8,0.9,0.9l0,0 c0,0,0.1,0,0.1-0.1l0,0l0,0l0,0l0,0v-0.1v-0.1c0-0.1,0-0.1,0-0.2c0-0.2,0-0.3,0-0.5c0-0.3,0-0.7,0-1c0-0.4,0-0.8,0-1.1 c0-0.4,0.1-0.8,0.3-1.1s0.4-0.7,0.5-1c0.1-0.2,0.2-0.4,0.2-0.5c0.1-0.2,0.1-0.3,0.1-0.5v-0.1v-0.1l0,0l0,0v-0.1V31 c-0.1-0.2-0.1-0.3-0.2-0.5C17.2,30.3,17,30,17,29.7c-0.3-0.5-0.5-0.9-0.6-1.2c-0.1-0.2-0.1-0.3-0.1-0.4V28l0,0l0,0v0.1 c0,0.1,0.1,0.2,0.1,0.4c0.1,0.3,0.4,0.8,0.7,1.2c0.1,0.3,0.3,0.5,0.5,0.8c0.1,0.2,0.2,0.3,0.2,0.5c0,0,0,0.1,0.1,0.1v0.1 c0,0.1,0,0.2,0,0.3c0,0.2,0,0.4-0.1,0.6s-0.1,0.4-0.2,0.6c-0.2,0.4-0.4,0.7-0.5,1c-0.2,0.3-0.2,0.7-0.3,1c0,0.4-0.1,0.8-0.1,1 c0,0.4,0,0.7,0,1c0,0.2,0,0.3,0,0.5c0,0.1,0,0.2-0.1,0.2c0,0.1-0.1,0.2-0.1,0.2s0,0,0,0.1l0,0l0,0l0,0l0,0l0,0c0,0-0.1,0-0.1,0.1 c0,0-0.1,0-0.1,0.1h-0.1l0,0c-0.3,0.3-0.8,0.7-1.2,0.9c-0.6,0.3-0.9,2-0.5,2.3c0.5,0.4,0.6,3,2.3,4.6s4.6,1,5.4,1 c0.8-0.1,1.7,0.2,2,0.8c0.4,0.5-0.6,2.5,0.2,3.5l0.1,0.1c0.1-0.2,0.1-0.4,0.3-0.4c0.1,0,0.3,0.3,0.3,0.3c0-0.2,0.1-0.3,0.2-0.3l0,0 c0.2,0,0.2,0.2,0.3,0.7c0-0.3,0.1-0.6,0.3-0.7c0,0,0,0,0.1,0c0.1,0,0.3,0.1,0.7,0.8c0.1-0.4,0.2-0.8,0.5-0.8c0,0,0,0,0.1,0 c0.2,0,0.4,0.1,0.9,1.1l0,0c0.2-0.4,0.4-0.8,0.6-0.8h0.1c0.2,0,0.5,0.1,0.9,0.9v-0.1c0.2-0.6,0.7-0.9,1.1-0.9c0.6,0,1,0.6,1.1,1.5 c0,0.1,0,0.2,0,0.3c0-0.1,0-0.2,0-0.3c0.1-0.9,0.5-1.5,1.1-1.5c0.5,0,0.9,0.3,1.1,0.9v0.1c0.6-0.8,0.8-0.9,0.9-0.9h0.1 c0.2,0.1,0.4,0.4,0.6,0.8l0,0c0.6-1,0.8-1.1,0.9-1.1c0,0,0,0,0.1,0c0.3,0.1,0.4,0.5,0.5,0.8c0.4-0.6,0.6-0.8,0.7-0.8H38 c0.2,0.1,0.2,0.4,0.3,0.7c0.1-0.5,0.2-0.7,0.3-0.7l0,0c0.1,0,0.1,0.1,0.2,0.3c0-0.1,0.2-0.4,0.3-0.3c0.1,0,0.2,0.2,0.3,0.4l0.1-0.1 c0.8-0.9-0.2-2.9,0.2-3.5c0.4-0.5,1.1-0.8,2-0.8c0.8,0.1,3.7,0.6,5.4-1c1.8-1.6,1.9-4.2,2.3-4.6s0.2-2.1-0.5-2.3 c-0.4-0.2-0.9-0.7-1.2-0.9l0,0h-0.1c0,0-0.1,0-0.1-0.1c0,0-0.1,0-0.1-0.1l0,0l0,0l0,0l0,0l0,0c0,0,0,0,0-0.1 c-0.1-0.1-0.1-0.2-0.1-0.2c0-0.1,0-0.2-0.1-0.2c0-0.2,0-0.3,0-0.5c0-0.3,0-0.7,0-1s0-0.8-0.1-1c0-0.4-0.1-0.8-0.3-1 c-0.2-0.4-0.4-0.7-0.5-1c-0.1-0.2-0.2-0.4-0.2-0.6c-0.1-0.2-0.1-0.4-0.1-0.6c0-0.1,0-0.2,0-0.3v-0.1c0,0,0-0.1,0.1-0.1 c0.1-0.2,0.2-0.3,0.2-0.5c0.2-0.3,0.3-0.6,0.5-0.8c0.3-0.5,0.5-0.9,0.7-1.2c0.1-0.2,0.1-0.3,0.1-0.4V28l0,0l0,0v0.1 c0,0.1,0,0.2-0.1,0.4c-0.1,0.3-0.3,0.8-0.6,1.2c-0.1,0.3-0.3,0.6-0.4,0.8c-0.1,0.2-0.1,0.3-0.2,0.5v0.1v0.1l0,0l0,0v0.1v0.1 c0,0.2,0,0.3,0.1,0.5c0.1,0.2,0.1,0.3,0.2,0.5c0.2,0.4,0.4,0.7,0.5,1c0.2,0.4,0.3,0.8,0.3,1.1c0,0.4,0,0.8,0,1.1 C47.7,35.8,47.7,36.2,47.7,36.5z M27.8,39.6c-1.2,1-5.4,0.9-6.6,0.6c-1.1-0.4-2-2.9-2-4.1c0-1.2,1.8-3.8,3.1-3.8 c1.4,0,3.4,0.8,5.7,1.8c1.4,0.6,1.5,1,1.8,2.2C30.3,37.4,29,38.6,27.8,39.6z M33.2,47c-0.6-0.3-0.8-1.3-0.9-1.5 c0,0.2-0.3,1.2-0.9,1.5c-0.7,0.3-1.7-0.3-1.7-1c0-0.8,0.2-0.8,0.4-2c0.2-1.1,0.8-2.3,0.8-3.1c0.1-0.6,0.4-1.1,0.8-1.1 c0.4,0,0.7,0.7,0.7,0.8c0-0.1,0.4-0.8,0.7-0.8c0.4,0,0.7,0.7,0.8,1.1c0.3,1.1,0.7,2.2,0.8,3.1c0.2,1.2,0.4,1.2,0.4,2 C34.9,46.6,33.8,47.2,33.2,47z M43.2,40.2c-1.1,0.4-5.3,0.4-6.6-0.6c-1.2-1-2.4-2.3-2.2-3.4c0.2-0.8,0-1.3,2.5-2.1 c1.7-0.6,4.6-2,5.7-1.8c1.3,0.3,2.3,2.5,2.3,3.7C45.1,37.3,44.3,39.8,43.2,40.2z" />
	<path class="p2" d="M39,52.2c0.1,0,0.3-0.2,0.3-0.6s-0.1-0.8-0.3-0.8c0,0-0.2,0.3-0.2,0.6C38.9,51.7,38.9,52.2,39,52.2z" />
	<path class="p2" d="M36.8,50.8c-0.3-0.1-0.8,1.1-0.8,1.1s0.1,0.3,0.1,0.6c0,0.3,0,0.6,0,0.6s0.6,0.4,0.8,0.3 c0.3-0.1,0.3-0.5,0.3-0.9C37.2,51.9,37.1,50.9,36.8,50.8z" />
</svg>
