<svg xmlns="http://www.w3.org/2000/svg" viewBox="0 0 64 64" fill="#fff">
	<rect x="25.6" y="24.559" transform="matrix(0.6354 -0.7722 0.7722 0.6354 -18.7661 33.7298)" class="st1" width="1.469" height="24.356" />
	<rect x="22.926" y="27.883" transform="matrix(0.6354 -0.7722 0.7722 0.6354 -22.3073 32.877)" class="st1" width="1.469" height="24.356" />
	<rect x="24.298" y="26.31" transform="matrix(0.6354 -0.7722 0.7722 0.6354 -20.5932 33.3626)" class="st1" width="1.469" height="24.356" />
	<path class="st1" d="M38.829,21.292c0.734,0.122,1.469,0.245,2.203,0.367c6.854,0.857,12.728-0.979,13.096-4.039 c0.367-3.06-4.896-6.364-11.749-7.221c-6.242-0.734-11.749,0.612-12.973,3.182l0,0l-7.588,9.546l18.848,15.421l7.71-9.424 L38.829,21.292z" />
	<rect x="29.645" y="19.663" transform="matrix(0.6354 -0.7722 0.7722 0.6354 -13.5108 35.0683)" class="st1" width="1.469" height="24.356" />
	<path class="st1" d="M6.763,42.71l17.624,14.319c0.367,0.245,0.857,0.245,1.101-0.122l6.609-8.078L13.372,33.408l-6.609,8.078 C6.396,41.853,6.518,42.343,6.763,42.71z" />
	<rect x="28.343" y="21.415" transform="matrix(0.6354 -0.7722 0.7722 0.6354 -15.3379 34.7011)" class="st1" width="1.469" height="24.356" />
	<rect x="26.971" y="22.987" transform="matrix(0.6354 -0.7722 0.7722 0.6354 -17.052 34.2154)" class="st1" width="1.469" height="24.356" />
</svg>
