<svg xmlns="http://www.w3.org/2000/svg" viewBox="0 0 64 64" fill="#fff">
	<path class="st1" d="M45.661,22.503l-0.556-6.757c-0.065-0.785,0.112-1.571,0.506-2.253l1.379-2.389 .48-0.832,0.195-1.895-0.637-2.376l-2.589-1.495c-0.832-0.48-1.896-0.195-2.376,0.637l-1.379,2.389 c-0.394,0.682-0.986,1.228-1.699,1.565l-6.13,2.897c-1.309,0.619-2.399,1.622-3.123,2.877L13.063,45.3 c-1.463,2.535-0.595,5.775,1.94,7.239l6.496,3.75c2.535,1.463,5.775,0.595,7.239-1.94l15.995-27.704 C45.456,25.392,45.78,23.946,45.661,22.503z M28.241,49.991c-1.717,2.973-5.518,3.992-8.492,2.275l-0.388-0.224 c-2.973-1.717-3.992-5.518-2.275-8.492l5.12-8.868c0.31-0.023,0.603-0.065,0.922-0.077c14.24-0.533,13.447-2.827,16.799-5.128 .081-0.055,0.169-0.11,0.253-0.166L28.241,49.991z" />
</svg>
